<svg xmlns="http://www.w3.org/2000/svg" viewBox="0 0 192 192"><defs><style>.a{fill:#294e80;}.b{fill:none;stroke:#4fc08d;stroke-miterlimit:10;stroke-width:19.2px;}</style></defs><title>electron-ts-vue-logo</title><path class="a" d="M96,5a90,90,0,1,0,90,90A90,90,0,0,0,96,5Zm0,142a51,51,0,1,1,51-51A51,51,0,0,1,96,147Z"/><circle class="b" cx="96" cy="96" r="60"/><path class="a" d="M116.85,111.58l18.81,6q-11.83,18.57-37,18.57-20.06,0-31.31-10.58T56.11,97.79q0-17.55,11.6-29.31T97.25,56.72q13,0,22.49,6.58a34.61,34.61,0,0,1,13.17,16.38,61.74,61.74,0,0,1,3.68,21.86H80.09q.55,10.34,6.54,14.65a21.33,21.33,0,0,0,12.66,4.31Q108,120.51,116.85,111.58Zm-4.62-23.51a19.26,19.26,0,0,0-5-10.81Q103.13,72.79,96,72.79q-13.32,0-15.52,15.28Z"/></svg>